<svg xmlns="http://www.w3.org/2000/svg" viewBox="0 0 500 250"><title>Artboard 4</title><rect width="500" height="250" style="fill:#388d9b"/><rect x="100" y="96" width="33" height="6" rx="3" ry="3" style="fill:#f7f7f7"/><rect x="100" y="147" width="33" height="6" rx="3" ry="3" style="fill:#f7f7f7"/><rect x="100" y="128" width="21" height="6" rx="3" ry="3" style="fill:#f7f7f7"/><rect x="92" y="113" width="28" height="6" rx="3" ry="3" style="fill:#f7f7f7"/><path d="M154,96H116a4,4,0,0,0-4,4v49a4,4,0,0,0,4,4h38a4,4,0,0,0,4-4V100A4,4,0,0,0,154,96Zm-7,44a4,4,0,0,1-4,4H127a4,4,0,0,1-4-4V110a4,4,0,0,1,4-4h16a4,4,0,0,1,4,4Z" style="fill:#f7f7f7"/><rect x="92" y="96" width="6" height="6" rx="3" ry="3" style="fill:#f7f7f7"/><rect x="84" y="113" width="6" height="6" rx="3" ry="3" style="fill:#f7f7f7"/><rect x="91" y="128" width="6" height="6" rx="3" ry="3" style="fill:#f7f7f7"/><rect x="92" y="147" width="6" height="6" rx="3" ry="3" style="fill:#f7f7f7"/><text transform="translate(169.67 124.96)" style="font-size:39.79148864746094px;fill:#f7f7f7;font-family:PTSans-NarrowBold, PT Sans Narrow;font-weight:700">DESIGN<tspan x="106.8" y="0" style="letter-spacing:-0.029990317416188128em"> </tspan><tspan x="113.76" y="0">THINKING</tspan></text><text transform="translate(169.67 152.74)" style="font-size:30.130929946899414px;fill:#f7f7f7;font-family:PTSans-Narrow, PT Sans Narrow">WEEK<tspan x="60.95" y="0" style="letter-spacing:-0.08799486747248024em">L</tspan><tspan x="70.81" y="0" style="letter-spacing:-0.019997360305900665em">Y</tspan></text><rect x="82" y="128" width="6" height="6" rx="3" ry="3" style="fill:#f7f7f7"/><rect x="74" y="128" width="6" height="6" rx="3" ry="3" style="fill:#f7f7f7"/></svg>