<svg xmlns="http://www.w3.org/2000/svg" viewBox="0 0 32 32">
  <title>Artboard 51</title>
  <g id="social-logos">
    <path d="M12.80245,7.10842v8.14192s2.86892,0,4.40434-.11654c1.20746-.21141,1.42971-.328,1.652-1.53542l.4445-1.76851h1.31317l-.22225,3.865.11655,3.95984h-1.324l-.328-1.54626a1.63124,1.63124,0,0,0-1.652-1.42972c-1.10041-.11654-4.40434-.11654-4.40434-.11654v6.82875c0,1.31317.66675,1.87422,2.20217,1.87422h4.62659c1.42971,0,2.85807-.11655,3.74843-2.20217l1.19662-2.64667h1.11125c-.11655.5502-.66675,5.399-.77245,6.49,0,0-4.18209-.1057-5.93976-.1057H11.04478l-4.73229.1057V25.70963l1.53542-.3388c1.11125-.22225,1.4392-.5502,1.4392-1.42971,0,0,.11655-2.97463.11655-7.93052,0-4.9437-.11655-7.91968-.11655-7.91968,0-.98521-.32795-1.20746-1.4392-1.42971L6.31249,6.336V5.1285l4.62659.09486h8.80867c1.75767,0,4.72145-.31711,4.72145-.31711s-.1057,1.86337-.22225,6.26771H23.03949L22.595,9.6277c-.43366-1.97992-1.09092-2.96514-2.30788-2.96514H13.3635C12.80245,6.66392,12.80245,6.76962,12.80245,7.10842Z" fill="orange"/>
  </g>
</svg>
